<svg xmlns="http://www.w3.org/2000/svg" version="1.1" xmlns:xlink="http://www.w3.org/1999/xlink" width="768.0412408853956" height="200" viewBox="0.13627907633781433 11.724687576293945 108.11198425292969 20.756677627563477"><path d="M10.37 11.89L10.37 11.89Q11.09 11.66 11.64 11.75Q12.19 11.84 12.64 12.00Q13.09 12.17 13.34 12.58Q13.59 12.99 13.67 13.50Q13.75 14.00 13.54 14.45Q13.32 14.90 13.03 15.23Q12.73 15.57 12.49 15.97Q12.25 16.37 11.79 16.51Q11.33 16.66 11.12 16.51Q10.92 16.37 11.36 15.28Q11.80 14.20 11.40 14.03Q11.00 13.87 10.46 14.01Q9.92 14.16 8.92 15.09Q7.91 16.02 7.25 17.24Q6.58 18.46 6.46 19.23Q6.33 20 6.40 20.75Q6.46 21.50 6.65 22.63Q6.84 23.75 7.04 24.64Q7.25 25.53 7.10 26.97Q6.95 28.42 6.39 29.36Q5.82 30.29 5.33 30.95Q4.84 31.60 4.21 32.01Q3.57 32.42 2.78 32.47Q1.99 32.52 1.55 32.35Q1.11 32.19 0.64 31.51Q0.18 30.84 0.14 30.28Q0.10 29.73 0.49 28.99Q0.88 28.26 1.72 27.38Q2.56 26.50 3.15 26.31Q3.75 26.11 4.21 25.63Q4.67 25.16 4.17 22.95Q3.67 20.74 3.93 19.16Q4.18 17.58 4.61 16.69Q5.04 15.80 5.98 14.78Q6.91 13.75 7.63 13.30Q8.34 12.85 8.99 12.48Q9.65 12.11 10.37 11.89ZM4.32 26.39L4.32 26.39Q4.02 25.90 2.80 27.42Q1.58 28.95 1.67 29.51Q1.76 30.08 2.04 30.16Q2.32 30.23 2.62 30.17Q2.91 30.10 3.14 29.85Q3.38 29.61 3.79 29.24Q4.20 28.87 4.43 28.30Q4.67 27.73 4.64 27.30Q4.61 26.88 4.32 26.39ZM16.78 21.66L16.78 21.66Q17.23 21.54 17.76 21.62Q18.30 21.70 18.62 21.95Q18.95 22.21 19.24 22.95Q19.53 23.69 18.97 23.95Q18.42 24.20 17.97 23.77Q17.52 23.34 17.03 23.59Q16.54 23.85 16.06 24.11Q15.59 24.38 14.88 24.94Q14.18 25.51 13.44 26.39Q12.70 27.27 12.62 27.51Q12.54 27.75 13.00 27.44Q13.46 27.13 14.40 26.49Q15.35 25.86 16.79 25.20Q18.22 24.53 18.60 24.68Q18.98 24.82 19.26 25.21Q19.53 25.61 19.57 25.89Q19.61 26.17 19.48 26.34Q19.36 26.50 19.19 27.09Q19.02 27.68 19.22 28.22Q19.41 28.77 19.72 28.97Q20.02 29.18 20.55 29.09Q21.07 29.00 21.85 28.29Q22.62 27.58 21.78 28.62Q20.94 29.67 20.45 29.95Q19.96 30.23 19.69 30.22Q19.41 30.21 18.97 30.05Q18.54 29.88 18.14 29.53Q17.75 29.18 17.53 28.67Q17.30 28.16 17.23 27.92Q17.15 27.68 16.87 27.38Q16.58 27.09 16.17 27.26Q15.76 27.42 14.74 28.16Q13.71 28.91 12.82 29.38Q11.93 29.86 11.23 30.05Q10.53 30.23 10.32 30.18Q10.12 30.12 9.87 29.74Q9.63 29.36 9.59 28.91Q9.55 28.46 9.72 28.00Q9.88 27.54 10.97 26.16Q12.05 24.79 13.06 23.91Q14.06 23.03 15.20 22.41Q16.33 21.80 16.78 21.66ZM22.89 24.30L22.89 24.30Q23.59 21.58 24.25 21.64Q24.90 21.70 25.23 22.23Q25.57 22.75 25.17 23.53Q24.77 24.30 25.09 24.25Q25.41 24.20 25.94 23.86Q26.46 23.52 26.94 23.31Q27.42 23.11 27.71 23.05Q28.01 22.99 28.84 23.24Q29.67 23.50 30.41 23.96Q31.15 24.41 32.37 24.03Q33.59 23.65 32.11 24.29Q30.63 24.92 29.07 24.88Q27.52 24.84 26.67 25.25Q25.82 25.66 25.23 26.16Q24.65 26.66 24.15 27.80Q23.65 28.95 23.39 29.73Q23.13 30.51 22.92 31.01Q22.71 31.50 22.08 31.53Q21.45 31.56 21.24 31.07Q21.04 30.59 21.14 30.44Q21.25 30.29 21.73 28.65Q22.21 27.01 22.89 24.30ZM36.97 21.66L36.97 21.66Q37.42 21.54 37.96 21.62Q38.50 21.70 38.82 21.95Q39.14 22.21 39.43 22.95Q39.73 23.69 39.17 23.95Q38.61 24.20 38.16 23.77Q37.71 23.34 37.23 23.59Q36.74 23.85 36.26 24.11Q35.78 24.38 35.08 24.94Q34.38 25.51 33.63 26.39Q32.89 27.27 32.81 27.51Q32.73 27.75 33.19 27.44Q33.65 27.13 34.60 26.49Q35.55 25.86 36.98 25.20Q38.42 24.53 38.80 24.68Q39.18 24.82 39.45 25.21Q39.73 25.61 39.77 25.89Q39.80 26.17 39.68 26.34Q39.55 26.50 39.38 27.09Q39.22 27.68 39.41 28.22Q39.61 28.77 39.91 28.97Q40.21 29.18 40.74 29.09Q41.27 29.00 42.04 28.29Q42.81 27.58 41.97 28.62Q41.13 29.67 40.64 29.95Q40.16 30.23 39.88 30.22Q39.61 30.21 39.17 30.05Q38.73 29.88 38.34 29.53Q37.95 29.18 37.72 28.67Q37.50 28.16 37.42 27.92Q37.34 27.68 37.06 27.38Q36.78 27.09 36.37 27.26Q35.96 27.42 34.93 28.16Q33.91 28.91 33.02 29.38Q32.13 29.86 31.43 30.05Q30.72 30.23 30.52 30.18Q30.31 30.12 30.07 29.74Q29.82 29.36 29.79 28.91Q29.75 28.46 29.91 28.00Q30.08 27.54 31.16 26.16Q32.25 24.79 33.25 23.91Q34.26 23.03 35.39 22.41Q36.52 21.80 36.97 21.66ZM60.31 14.45L60.31 14.45Q61.31 13.87 62.00 14.04Q62.70 14.22 63.05 14.68Q63.40 15.14 63.19 15.71Q62.99 16.29 62.48 16.43Q61.97 16.56 61.25 16.81Q60.53 17.05 59.66 17.63Q58.79 18.20 57.44 19.32Q56.09 20.43 54.75 21.85Q53.40 23.26 52.88 24.70Q52.36 26.13 52.31 26.72Q52.27 27.30 52.45 27.99Q52.64 28.67 53.08 29.06Q53.52 29.45 54.16 29.62Q54.80 29.79 55.52 29.73Q56.23 29.67 57.33 29.57Q58.44 29.47 60.21 28.98Q61.99 28.50 63.83 27.52Q65.66 26.54 66.23 25.96Q66.80 25.37 66.17 26.15Q65.55 26.93 64.39 27.68Q63.24 28.42 60.98 29.70Q58.71 30.98 57.64 31.33Q56.56 31.68 55.52 31.78Q54.47 31.88 53.58 31.73Q52.70 31.58 52.11 31.18Q51.52 30.78 50.86 29.86Q50.20 28.95 50.06 27.71Q49.92 26.48 50.25 25.21Q50.59 23.95 51.22 22.94Q51.86 21.93 52.84 20.61Q53.83 19.28 55.66 17.82Q57.50 16.37 58.42 15.70Q59.34 15.04 60.31 14.45ZM67.97 21.66L67.97 21.66Q68.42 21.54 68.96 21.62Q69.49 21.70 69.81 21.95Q70.14 22.21 70.43 22.95Q70.72 23.69 70.17 23.95Q69.61 24.20 69.16 23.77Q68.71 23.34 68.22 23.59Q67.73 23.85 67.26 24.11Q66.78 24.38 66.07 24.94Q65.37 25.51 64.63 26.39Q63.89 27.27 63.81 27.51Q63.73 27.75 64.19 27.44Q64.65 27.13 65.60 26.49Q66.54 25.86 67.98 25.20Q69.41 24.53 69.79 24.68Q70.18 24.82 70.45 25.21Q70.72 25.61 70.76 25.89Q70.80 26.17 70.67 26.34Q70.55 26.50 70.38 27.09Q70.21 27.68 70.41 28.22Q70.61 28.77 70.91 28.97Q71.21 29.18 71.74 29.09Q72.27 29.00 73.04 28.29Q73.81 27.58 72.97 28.62Q72.13 29.67 71.64 29.95Q71.15 30.23 70.88 30.22Q70.61 30.21 70.17 30.05Q69.73 29.88 69.34 29.53Q68.95 29.18 68.72 28.67Q68.50 28.16 68.42 27.92Q68.34 27.68 68.06 27.38Q67.77 27.09 67.36 27.26Q66.95 27.42 65.93 28.16Q64.90 28.91 64.01 29.38Q63.13 29.86 62.42 30.05Q61.72 30.23 61.51 30.18Q61.31 30.12 61.06 29.74Q60.82 29.36 60.78 28.91Q60.74 28.46 60.91 28.00Q61.07 27.54 62.16 26.16Q63.24 24.79 64.25 23.91Q65.25 23.03 66.39 22.41Q67.52 21.80 67.97 21.66ZM74.08 24.30L74.08 24.30Q74.79 21.58 75.44 21.64Q76.09 21.70 76.43 22.23Q76.76 22.75 76.36 23.53Q75.96 24.30 76.28 24.25Q76.60 24.20 77.13 23.86Q77.66 23.52 78.13 23.31Q78.61 23.11 78.91 23.05Q79.20 22.99 80.03 23.24Q80.86 23.50 81.60 23.96Q82.34 24.41 83.56 24.03Q84.79 23.65 83.30 24.29Q81.82 24.92 80.26 24.88Q78.71 24.84 77.86 25.25Q77.01 25.66 76.43 26.16Q75.84 26.66 75.34 27.80Q74.84 28.95 74.58 29.73Q74.32 30.51 74.11 31.01Q73.91 31.50 73.27 31.53Q72.64 31.56 72.43 31.07Q72.23 30.59 72.33 30.44Q72.44 30.29 72.92 28.65Q73.40 27.01 74.08 24.30ZM88.91 22.32L88.91 22.32Q89.12 22.15 89.43 22.16Q89.75 22.17 89.98 22.39Q90.21 22.62 90.57 22.97Q90.92 23.32 91.54 23.43Q92.17 23.54 93.65 23.25Q95.14 22.97 93.63 23.36Q92.13 23.75 91.14 23.98Q90.16 24.22 89.64 24.75Q89.12 25.27 88.46 26.09Q87.79 26.91 86.93 28.20Q86.07 29.49 85.80 29.96Q85.53 30.43 85.10 30.74Q84.67 31.05 84.16 30.82Q83.65 30.59 83.42 30.12Q83.18 29.65 83.14 29.02Q83.11 28.40 82.75 27.38Q82.40 26.37 81.90 25.43Q81.41 24.49 81.67 24.02Q81.93 23.55 82.48 23.48Q83.03 23.40 83.42 23.87Q83.81 24.34 84.16 25.34Q84.51 26.35 84.61 26.87Q84.71 27.38 85 27.19Q85.29 26.99 86.82 24.92Q88.34 22.85 88.52 22.67Q88.69 22.48 88.91 22.32ZM96.91 15.55L96.91 15.55Q97.34 15.90 97.43 17.08Q97.52 18.26 98.24 19.38Q98.96 20.51 99.94 21.17Q100.92 21.84 101.73 22.11Q102.54 22.38 101.68 22.24Q100.82 22.09 99.97 21.55Q99.12 21.02 98.14 19.95Q97.17 18.89 96.72 18.39Q96.27 17.89 96.08 17.83Q95.90 17.77 95.77 17.74Q95.64 17.71 95.19 17.35Q94.73 16.99 94.85 16.46Q94.98 15.94 95.20 15.68Q95.41 15.43 95.95 15.30Q96.48 15.18 96.91 15.55ZM93.79 21.46L93.79 21.46Q94.22 21.37 94.78 21.52Q95.33 21.68 94.97 22.66Q94.61 23.63 94.18 25.20Q93.75 26.76 93.37 27.73Q92.99 28.71 92.52 29.42Q92.05 30.14 91.62 30.20Q91.19 30.25 91.03 30.17Q90.86 30.08 91.00 29.26Q91.13 28.44 91.57 26.75Q92.01 25.06 92.40 23.81Q92.79 22.56 92.41 22.53Q92.03 22.50 92.71 22.03Q93.38 21.56 93.79 21.46ZM102.81 21.66L102.81 21.66Q103.26 21.54 103.80 21.62Q104.34 21.70 104.66 21.95Q104.98 22.21 105.27 22.95Q105.57 23.69 105.01 23.95Q104.45 24.20 104.00 23.77Q103.55 23.34 103.07 23.59Q102.58 23.85 102.10 24.11Q101.62 24.38 100.92 24.94Q100.21 25.51 99.47 26.39Q98.73 27.27 98.65 27.51Q98.57 27.75 99.03 27.44Q99.49 27.13 100.44 26.49Q101.39 25.86 102.82 25.20Q104.26 24.53 104.64 24.68Q105.02 24.82 105.29 25.21Q105.57 25.61 105.61 25.89Q105.64 26.17 105.52 26.34Q105.39 26.50 105.22 27.09Q105.06 27.68 105.25 28.22Q105.45 28.77 105.75 28.97Q106.05 29.18 106.58 29.09Q107.11 29.00 107.88 28.29Q108.65 27.58 107.81 28.62Q106.97 29.67 106.48 29.95Q106.00 30.23 105.72 30.22Q105.45 30.21 105.01 30.05Q104.57 29.88 104.18 29.53Q103.79 29.18 103.56 28.67Q103.34 28.16 103.26 27.92Q103.18 27.68 102.90 27.38Q102.62 27.09 102.21 27.26Q101.80 27.42 100.77 28.16Q99.75 28.91 98.86 29.38Q97.97 29.86 97.27 30.05Q96.56 30.23 96.36 30.18Q96.15 30.12 95.91 29.74Q95.66 29.36 95.63 28.91Q95.59 28.46 95.75 28.00Q95.92 27.54 97.00 26.16Q98.09 24.79 99.09 23.91Q100.10 23.03 101.23 22.41Q102.36 21.80 102.81 21.66Z" fill="white"></path></svg>